<?xml version="1.0" encoding="UTF-8"?><svg xmlns="http://www.w3.org/2000/svg" xmlns:xlink="http://www.w3.org/1999/xlink" clip-rule="evenodd" fill-rule="evenodd" height="348.5" preserveAspectRatio="xMidYMid meet" stroke-linejoin="round" stroke-miterlimit="2" version="1.0" viewBox="-0.6 -1.7 451.3 348.5" width="451.3" zoomAndPan="magnify"><g><g><g id="change1_1"><path d="M604.746,861.672C603.619,863.467 597.211,860.456 595.816,859.919C586.119,856.19 576.305,851.924 567.144,847.038C559.334,842.873 549.894,840.117 542.628,834.988C520.689,819.501 488.812,767.262 519.359,746.897C545.021,729.789 572.804,777.161 582.103,793.435C585.771,799.853 588.615,805.879 590.829,812.965C593.943,822.928 597.473,832.896 600.802,842.883C601.843,846.007 604.076,849.183 604.542,852.44C604.789,854.174 605.42,858.993 606.204,857.426C606.837,856.159 604.431,848.875 604.126,847.454C602.332,839.08 601.581,830.262 600.802,821.691C600.1,813.965 600.386,806.179 600.386,798.422C600.386,773.65 610.616,708.637 650.249,716.563C665.458,719.605 666.725,737.465 666.039,749.805C664.445,778.509 642.948,805.333 629.889,829.586C626.331,836.193 622.428,842.429 619.085,849.116C617.45,852.387 615.28,855.48 613.683,858.673C613.287,859.466 612.021,860.75 612.021,860.75C612.021,860.75 612.71,859.001 613.268,858.257C615.889,854.762 617.941,850.181 621.578,847.454C629.995,841.141 638.625,833.931 647.341,827.508C653.397,823.046 659.74,819.647 666.455,816.289C690.106,804.464 748.321,783.077 758.286,822.938C761.404,835.412 752,844.283 743.742,852.024C719.069,875.156 681.569,870.607 650.665,868.23C640.876,867.477 629.786,868.516 620.332,866.152C616.405,865.171 611.881,866.124 607.866,865.321C607.436,865.235 606.619,864.906 606.619,864.906L608.697,864.906C612.091,864.906 616.297,866.509 619.501,867.399C626.129,869.24 633.41,871.525 639.446,874.878C662.67,887.781 713.519,899.874 708.423,935.545C704.208,965.047 671.596,967.921 651.08,954.243C632.314,941.732 603.295,891.177 603.295,866.568C603.295,865.321 603.09,869.078 603.295,870.308C603.769,873.15 604.351,876.206 604.957,879.034C606.884,888.024 608.609,896.857 609.528,906.043C611.918,929.947 611.115,960.967 592.907,979.175C586.531,985.551 577.646,994.391 567.56,991.641C557.504,988.898 553.52,975.772 553.017,966.709C551.446,938.446 567.18,919.222 581.272,896.07C585.667,888.85 590.945,882.49 595.4,875.294C595.914,874.464 599.627,866.568 601.633,866.568C603.602,866.568 599.285,869.747 597.893,871.139C595.615,873.417 593.118,875.498 590.829,877.787C584.301,884.315 577.124,889.061 569.638,894.408C550.702,907.934 521.198,919.384 497.752,913.522C488.397,911.183 477.344,906.975 473.236,897.317C464.332,876.381 478.61,862.784 495.259,853.271C521.803,838.103 575.431,861.672 604.746,861.672Z" fill="#f1ebdb" transform="matrix(.84747 0 0 .84747 -394.001 -600.04)"/></g><g id="change1_3"><path d="M593.484,800.224L593.412,800.061C591.879,796.665 590.155,793.357 588.21,789.946C581.5,778.172 565.429,751.303 547.424,740.945C537.058,734.981 526.095,733.856 515.405,740.965C499.936,751.253 497.01,768.095 501.516,785.818C507.127,807.891 524.636,831.13 538.452,840.905C540.958,842.678 543.687,844.213 546.528,845.61C546.967,845.826 547.409,846.038 547.854,846.246C541.225,844.962 534.649,843.903 528.35,843.342C514.588,842.115 502.06,843.263 492.616,848.646C481.348,855.068 471.273,863.394 467.175,874.004C464.359,881.293 464.152,889.693 468.279,899.425C470.323,904.246 473.716,908.013 477.847,910.943C483.353,914.848 490.22,917.219 496.437,918.781C506.695,921.357 518.029,920.933 529.246,918.473C545.247,914.964 561.007,907.317 572.837,898.887L573.02,898.757C565.448,910.776 557.867,922.009 552.951,934.297C548.973,944.243 546.687,954.858 547.349,967.024C547.69,973.277 549.529,981.182 553.367,987.24C556.386,992.005 560.602,995.655 566.058,997.149C571.521,998.645 576.738,997.722 581.567,995.394C587.462,992.552 592.744,987.449 596.967,983.235C605.045,975.175 610.081,964.857 612.968,953.649C615.755,942.825 616.52,931.163 616.249,920.093C626.148,937.436 638.273,952.88 647.762,959.221C659.398,966.997 674.489,969.989 687.258,966.945C700.751,963.729 711.877,954.094 714.424,936.402C716.311,923.296 711.88,912.851 703.951,904.253C691.54,890.796 669.57,882.307 652.947,874.688C671.212,876.146 691.486,877.973 710.101,874.67C724.123,872.182 737.223,866.836 748.094,856.667C753.636,851.483 759.512,845.738 762.675,839.044C765.161,833.781 766.132,827.963 764.495,821.385C759.575,801.613 744.946,794.121 727.236,793.457C705.231,792.633 678.121,803.191 663.541,810.461C659.353,812.549 655.307,814.656 651.379,817.006C648.687,818.616 646.05,820.34 643.461,822.243L640.28,824.7C647.436,812.528 655.875,799.754 662.291,786.466C667.952,774.741 672.055,762.614 672.759,750.179C673.239,741.708 672.691,731.002 668.615,722.995C665.331,716.544 659.986,711.612 651.578,709.921C632.127,706.008 618.312,716.286 609.09,732.402C597.397,752.835 593.51,783.005 593.494,798.422L593.484,800.224ZM599.124,879.705L599.231,880.261C600.374,885.566 601.447,890.815 602.318,896.118C602.888,899.586 603.372,903.077 603.73,906.622C605.11,920.265 605.464,936.336 601.778,950.78C599.434,959.968 595.451,968.497 588.847,975.115C585.452,978.517 581.33,982.79 576.585,985.09C574.238,986.228 571.722,986.855 569.062,986.132C565.616,985.197 563.395,982.282 561.809,979.021C559.839,974.972 558.902,970.25 558.684,966.394C558.096,956.019 560.058,946.967 563.432,938.477C568.847,924.854 577.762,912.624 586.048,898.977L599.124,879.705ZM609.66,872.347L609.74,872.823L610.204,875.271C612.452,885.906 618.149,899.079 625.027,911.515C634.161,928.031 645.435,943.304 654.399,949.266C663.271,955.166 674.736,957.571 684.453,955.232C693.458,953.064 700.747,946.505 702.421,934.688C704.16,922.419 697.652,913.661 688.433,906.655C672.882,894.839 649.928,887.741 636.449,880.272C634.267,879.063 631.901,878.015 629.469,877.08C625.629,875.604 621.624,874.412 617.843,873.367C616.3,872.94 614.52,872.34 612.714,871.848C611.799,871.868 610.886,871.878 609.987,871.825L609.581,871.795L609.66,872.347ZM590.094,865.525C571.332,862.573 547.92,855.663 527.422,853.882C516.071,852.895 505.68,853.44 497.902,857.896C490.367,862.212 483.283,867.351 479.186,873.884C475.522,879.728 474.577,886.732 478.193,895.208C479.781,898.931 482.793,901.52 486.225,903.483C490.236,905.777 494.849,907.214 499.066,908.264C509.919,910.964 522.165,909.54 533.888,905.982C545.936,902.325 557.44,896.371 566.438,889.929C570.866,886.759 575.185,883.807 579.32,880.556C581.935,878.499 584.475,876.321 586.916,873.874L593.029,868.109C593.254,867.722 593.488,867.332 593.726,866.948L593.193,866.739C592.161,866.341 591.127,865.937 590.094,865.525ZM620.587,859.852L623.19,855.26C623.876,854.313 624.604,853.406 625.524,852.715L651.22,832.774C654.044,830.689 656.935,828.854 659.902,827.145C662.975,825.377 666.127,823.743 669.369,822.118C682.52,815.524 706.897,805.641 726.767,806.343C738.613,806.761 748.756,811.273 752.076,824.49C753.174,828.862 751.952,832.581 749.847,835.906C747.139,840.184 743.111,843.887 739.39,847.382C730.402,855.828 719.491,860.139 707.878,862.226C689.367,865.552 669.11,863.354 651.145,861.992C644.339,861.476 636.905,861.826 629.828,861.298C627.081,861.092 624.393,860.75 621.841,860.115C621.428,860.012 621.01,859.923 620.587,859.852ZM597.335,852.673C592.966,850.982 588.58,849.179 584.25,847.256C579.593,845.187 575.001,842.98 570.567,840.621C565.048,837.686 558.733,835.435 552.915,832.589C550.77,831.54 548.699,830.405 546.805,829.071C535.048,820.791 520.227,801.012 515.418,782.268C512.467,770.769 513.286,759.529 523.313,752.828C531.153,747.589 539.104,751.445 546.408,757.542C559.702,768.639 570.811,787.875 575.996,796.925C577.721,799.936 579.256,802.854 580.617,805.853C581.95,808.788 583.117,811.8 584.138,815.056L594.184,845.089L597.335,852.673ZM611.774,848.643L611.668,848.801C611.318,847.519 611.02,846.468 610.919,845.998C610.234,842.82 609.71,839.574 609.278,836.302C608.608,831.234 608.156,826.106 607.692,821.065C607.423,818.147 607.306,815.22 607.26,812.289C607.186,807.669 607.284,803.04 607.279,798.422C607.264,784.601 610.498,757.505 620.939,739.165C627.095,728.352 635.88,720.613 648.921,723.206C653.856,724.188 656.351,727.763 657.726,731.914C659.57,737.484 659.612,744.06 659.319,749.432C658.736,760.142 655.086,770.552 650.233,780.66C642.514,796.735 631.781,812.041 624.048,826.441L613.174,846.16L611.774,848.643Z" fill="#f1ebdb" transform="matrix(.84747 0 0 .84747 -394.001 -600.04)"/></g><g id="change1_2"><path d="M604.746,861.672C603.619,863.467 597.211,860.456 595.816,859.919C586.119,856.19 576.305,851.924 567.144,847.038C559.334,842.873 549.894,840.117 542.628,834.988C520.689,819.501 488.812,767.262 519.359,746.897C545.021,729.789 572.804,777.161 582.103,793.435C585.771,799.853 588.615,805.879 590.829,812.965C593.943,822.928 597.473,832.896 600.802,842.883C601.843,846.007 604.076,849.183 604.542,852.44C604.789,854.174 605.42,858.993 606.204,857.426C606.837,856.159 604.431,848.875 604.126,847.454C602.332,839.08 601.581,830.262 600.802,821.691C600.1,813.965 600.386,806.179 600.386,798.422C600.386,773.65 610.616,708.637 650.249,716.563C665.458,719.605 666.725,737.465 666.039,749.805C664.445,778.509 642.948,805.333 629.889,829.586C626.331,836.193 622.428,842.429 619.085,849.116C617.45,852.387 615.28,855.48 613.683,858.673C613.287,859.466 612.021,860.75 612.021,860.75C612.021,860.75 612.71,859.001 613.268,858.257C615.889,854.762 617.941,850.181 621.578,847.454C629.995,841.141 638.625,833.931 647.341,827.508C653.397,823.046 659.74,819.647 666.455,816.289C690.106,804.464 748.321,783.077 758.286,822.938C761.404,835.412 752,844.283 743.742,852.024C719.069,875.156 681.569,870.607 650.665,868.23C640.876,867.477 629.786,868.516 620.332,866.152C616.405,865.171 611.881,866.124 607.866,865.321C607.436,865.235 606.619,864.906 606.619,864.906L608.697,864.906C612.091,864.906 616.297,866.509 619.501,867.399C626.129,869.24 633.41,871.525 639.446,874.878C662.67,887.781 713.519,899.874 708.423,935.545C704.208,965.047 671.596,967.921 651.08,954.243C632.314,941.732 603.295,891.177 603.295,866.568C603.295,865.321 603.09,869.078 603.295,870.308C603.769,873.15 604.351,876.206 604.957,879.034C606.884,888.024 608.609,896.857 609.528,906.043C611.918,929.947 611.115,960.967 592.907,979.175C586.531,985.551 577.646,994.391 567.56,991.641C557.504,988.898 553.52,975.772 553.017,966.709C551.446,938.446 567.18,919.222 581.272,896.07C585.667,888.85 590.945,882.49 595.4,875.294C595.914,874.464 599.627,866.568 601.633,866.568C603.602,866.568 599.285,869.747 597.893,871.139C595.615,873.417 593.118,875.498 590.829,877.787C584.301,884.315 577.124,889.061 569.638,894.408C550.702,907.934 521.198,919.384 497.752,913.522C488.397,911.183 477.344,906.975 473.236,897.317C464.332,876.381 478.61,862.784 495.259,853.271C521.803,838.103 575.431,861.672 604.746,861.672Z" fill="#f1ebdb" transform="matrix(.6776 0 0 .60317 -69.667 -256.995)"/></g><g id="change1_4"><path d="M591.927,792.521C591.16,791.055 590.353,789.586 589.506,788.097C582.54,775.869 565.653,747.811 546.885,737.637C536.468,731.991 525.51,731.173 514.809,738.283C497.914,749.51 494.912,767.945 499.972,787.317C505.584,808.805 521.99,831.304 535.737,842.047C533.276,841.702 530.842,841.414 528.447,841.199C514.502,839.944 501.804,841.143 492.234,846.592C480.906,853.042 470.801,861.49 466.379,872.032C462.968,880.166 462.494,889.593 467.15,900.583C469.396,905.882 473.133,910.036 477.715,913.208C483.252,917.041 490.083,919.405 496.277,920.964C508.923,924.147 523.202,922.804 536.891,918.739C547.685,915.534 558.101,910.652 566.994,905.149C561.223,914.263 555.801,923.155 551.939,932.653C547.674,943.143 545.225,954.343 545.923,967.207C546.296,974.075 548.371,982.788 552.696,989.342C555.89,994.184 560.246,997.9 565.874,999.444C571.41,1000.96 576.698,1000.08 581.608,997.779C587.769,994.894 593.288,989.594 597.687,985.208C605.95,976.969 611.147,966.463 614.173,955.032C616.64,945.711 617.634,935.761 617.745,926.06C627.294,941.892 638.412,955.548 647.263,961.469C661.326,970.875 680.315,973.355 694.521,966.958C705.368,962.073 713.68,952.345 715.908,936.894C718.034,922.151 712.87,910.461 703.581,900.983C694.183,891.395 679.963,884.34 666.609,878.286C680.867,879.278 695.751,879.719 709.723,877.319C724.171,874.837 737.664,869.355 748.85,858.9C754.483,853.634 760.422,847.751 763.744,840.99C766.735,834.905 767.906,828.155 766.004,820.503C760.776,799.475 745.263,791.257 726.317,790.804C704.344,790.278 677.608,800.699 663.134,807.908C658.931,810.001 654.87,812.115 650.927,814.469C649.733,815.182 648.55,815.916 647.379,816.683C654.558,804.868 662.114,792.538 667.33,779.779C671.241,770.212 673.884,760.396 674.452,750.395C674.985,741.032 674.231,729.163 669.486,720.486C665.93,713.983 660.383,708.925 651.736,707.181C632.369,703.275 618.515,713.098 608.964,728.675C597.487,747.391 592.822,775.134 591.927,792.521ZM598.427,883.742C599.154,887.183 599.84,890.608 600.449,894.049C601.203,898.308 601.84,902.59 602.283,906.957C603.643,920.387 604.021,936.239 600.306,950.424C598.062,958.994 594.3,966.951 588.126,973.142C585.263,976.014 581.864,979.503 578.006,981.875C575.326,983.523 572.4,984.692 569.246,983.837C566.362,983.056 564.448,980.654 563.082,977.951C561.198,974.219 560.314,969.8 560.11,966.212C559.539,956.169 561.493,947.431 564.803,939.228C570.182,925.895 578.931,913.899 587.055,900.512L598.427,883.742ZM611.556,874.338L617.641,875.848C621.382,876.881 625.344,878.056 629.144,879.512C631.542,880.431 633.874,881.459 636.025,882.65C649.162,889.922 671.303,896.828 686.801,908.118C695.757,914.642 702.587,922.54 700.937,934.195C699.361,945.333 692.126,951.146 683.561,952.979C674.218,954.978 663.351,952.635 654.897,947.018C646.24,941.265 635.404,926.589 626.52,910.684C619.799,898.649 614.11,885.886 611.778,875.509L611.556,874.338ZM586.257,866.998L589.125,868.165L589.918,868.477L586.219,871.969C583.809,874.386 581.301,876.536 578.718,878.566C574.615,881.791 570.329,884.723 565.937,887.87C556.945,894.313 545.424,900.263 533.374,903.883C521.869,907.341 509.87,908.723 499.226,906.08C495.167,905.072 490.735,903.707 486.85,901.535C483.661,899.752 480.788,897.487 479.321,894.05C476.048,886.383 477.005,880.083 480.466,874.86C484.493,868.784 491.191,864.018 498.283,859.95C505.956,855.55 516.208,855.061 527.409,856.032C546.539,857.691 568.199,863.801 586.257,866.998ZM623.847,858.012L624.349,857.125C624.882,856.396 625.445,855.689 626.155,855.155L651.837,835.209C654.625,833.148 657.481,831.335 660.413,829.647C663.452,827.897 666.57,826.28 669.775,824.671C682.662,818.202 706.407,808.541 725.997,808.947C737.357,809.182 747.4,812.775 750.567,825.373C751.438,828.835 750.281,831.723 748.579,834.342C745.965,838.366 742.153,841.842 738.635,845.149C729.715,853.537 718.852,857.722 707.308,859.744C688.976,862.954 668.964,860.79 651.2,859.453C644.398,858.941 636.97,859.294 629.896,858.771C627.835,858.619 625.807,858.389 623.847,858.012ZM593.391,848.086C590.475,846.917 587.564,845.691 584.678,844.411C580.038,842.353 575.462,840.158 571.044,837.81C565.525,834.878 559.211,832.625 553.39,829.786C551.303,828.768 549.287,827.671 547.446,826.376C536.172,818.443 521.928,799.597 517.181,781.615C514.499,771.458 515.058,761.43 523.909,755.51C531.022,750.752 538.26,754.132 544.93,759.493C558.309,770.245 569.515,789.727 574.701,798.774C576.366,801.678 577.85,804.492 579.166,807.384C580.449,810.205 581.574,813.098 582.556,816.228L592.629,846.321L593.391,848.086ZM612.29,843.783C611.764,841.156 611.345,838.485 610.989,835.797C610.324,830.776 609.876,825.696 609.416,820.703C609.156,817.886 609.043,815.061 608.997,812.231C608.923,807.631 609.021,803.021 609.015,798.422C608.997,784.664 612.239,757.273 623.046,739.538C628.815,730.072 637.009,723.615 648.762,725.946C652.725,726.732 654.908,729.419 656.077,732.714C657.918,737.904 657.901,744.15 657.626,749.216C657.063,759.592 653.444,769.652 648.716,779.44C641.032,795.346 630.429,810.493 622.776,824.753L612.29,843.783Z" fill="#f1ebdb" transform="matrix(.6776 0 0 .60317 -69.667 -256.995)"/></g><g id="change2_2" transform="matrix(.84747 0 0 .84747 -144.219 -520.73)"><ellipse cx="310.447" cy="760.443" fill="#dfaf36" rx="22.103" ry="24.012"/></g><g id="change2_4"><path d="M310.447,731.227C302.62,731.113 295.514,734.584 290.403,740.201C285.66,745.413 282.726,752.553 282.611,760.443C282.495,768.403 285.378,775.64 290.007,781.036C295.1,786.971 302.387,790.599 310.447,790.716C318.583,790.835 325.969,787.225 331.282,781.385C336.188,775.993 339.22,768.606 339.339,760.443C339.459,752.212 336.465,744.732 331.677,739.152C326.39,732.988 318.816,729.237 310.447,729.115L310.447,731.227ZM310.447,743.749C314.605,743.688 318.391,745.508 321.106,748.492C323.911,751.574 325.693,755.778 325.761,760.443C325.83,765.179 324.256,769.535 321.502,772.745C318.727,775.979 314.839,778.13 310.447,778.194C305.979,778.259 301.913,776.3 298.995,773.094C296.027,769.832 294.149,765.381 294.077,760.443C294.004,755.436 295.688,750.837 298.6,747.443C301.57,743.98 305.745,741.705 310.447,741.637L310.447,743.749Z" fill="#dfaf36" transform="matrix(.84747 0 0 .84747 -144.219 -520.73)"/></g><g id="change2_3" transform="matrix(.6776 0 0 .60317 130.048 -200.548)"><ellipse cx="310.447" cy="760.443" fill="#dfaf36" rx="22.103" ry="24.012"/></g><g id="change2_1"><path d="M310.447,729.119C302.619,728.949 295.51,732.34 290.238,737.759C284.703,743.447 281.327,751.516 281.173,760.443C281.018,769.475 284.386,777.672 289.783,783.666C295.037,789.501 302.354,793.076 310.447,793.252C318.629,793.43 326.055,789.868 331.566,784.203C337.361,778.247 340.88,769.791 341.041,760.443C341.203,750.992 337.669,742.419 332.021,736.146C326.536,730.055 318.894,726.335 310.447,726.151L310.447,729.119ZM310.447,746.712C314.068,746.634 317.423,748 319.862,750.507C322.31,753.023 323.991,756.495 324.059,760.443C324.128,764.495 322.739,768.228 320.317,770.917C317.794,773.719 314.333,775.574 310.447,775.658C306.471,775.745 302.799,774.207 300.121,771.455C297.413,768.671 295.589,764.812 295.514,760.443C295.437,755.972 296.993,751.862 299.666,748.894C302.419,745.837 306.206,743.837 310.447,743.745L310.447,746.712Z" fill="#dfaf36" transform="matrix(.6776 0 0 .60317 130.048 -200.548)"/></g></g></g></svg>