<?xml version="1.0" encoding="UTF-8"?><svg xmlns="http://www.w3.org/2000/svg" xmlns:xlink="http://www.w3.org/1999/xlink" height="225.5" preserveAspectRatio="xMidYMid meet" version="1.0" viewBox="29.6 137.0 441.5 225.5" width="441.5" zoomAndPan="magnify"><g><g id="change1_1"><path d="M 370.046875 214.453125 C 357.4375 179.757812 307.171875 164.597656 269.601562 183.84375 C 252.144531 137.019531 199.9375 138.867188 184.492188 186.835938 C 151.957031 171.296875 111.699219 189.40625 105.984375 222.878906 C 67.863281 223.011719 37.644531 244.871094 37.710938 271.152344 C 37.789062 300.589844 76.503906 322.5 117.765625 316.417969 C 137.097656 354.160156 214.53125 362.4375 251.542969 330.390625 C 279.851562 362.339844 348.308594 354.082031 360.046875 317 C 404.855469 331.40625 462.203125 310.378906 462.203125 267.011719 C 462.203125 227.164062 413.554688 205.789062 370.046875 214.453125" fill="#e3f2ff"/></g><g id="change1_2"><path d="M 370.046875 214.453125 C 357.4375 179.757812 307.171875 164.597656 269.601562 183.84375 C 252.144531 137.019531 199.9375 138.867188 184.492188 186.835938 C 151.957031 171.296875 111.699219 189.40625 105.984375 222.878906 C 67.863281 223.011719 37.644531 244.871094 37.710938 271.152344 C 37.789062 300.589844 76.503906 322.5 117.765625 316.417969 C 137.097656 354.160156 214.53125 362.4375 251.542969 330.390625 C 279.851562 362.339844 348.308594 354.082031 360.046875 317 C 404.855469 331.40625 462.203125 310.378906 462.203125 267.011719 C 462.203125 227.164062 413.554688 205.789062 370.046875 214.453125" fill="#e3f2ff"/></g><g id="change2_1"><path d="M 105.65625 222.886719 C 103.367188 227.15625 101.726562 231.8125 100.863281 236.828125 C 73.898438 236.910156 50.761719 247.3125 38.820312 262.402344 C 44.5625 240.265625 72.019531 223.109375 105.65625 222.886719" fill="#fff"/></g><g id="change2_2"><path d="M 460.289062 253.816406 C 443.589844 231.847656 407.515625 221.753906 374.316406 228.257812 C 361.257812 192.960938 309.210938 177.546875 270.304688 197.125 C 252.214844 149.496094 198.152344 151.378906 182.160156 200.15625 C 153.773438 186.84375 119.679688 197.835938 106.148438 222.007812 C 112.414062 189.078125 152.25 171.429688 184.5 186.828125 C 199.945312 138.859375 252.148438 137.015625 269.609375 183.847656 C 307.175781 164.605469 357.429688 179.765625 370.050781 214.453125 C 408.480469 206.8125 450.90625 222.582031 460.289062 253.816406" fill="#fff"/></g><g id="change1_3"><path d="M 106.148438 222.007812 C 106.078125 222.296875 106.027344 222.582031 105.976562 222.886719 L 105.65625 222.886719 C 105.808594 222.582031 105.976562 222.296875 106.148438 222.007812" fill="#e3f2ff"/></g><g id="change3_1"><path d="M 360.039062 316.992188 C 348.367188 353.980469 279.9375 362.425781 251.535156 330.390625 C 214.480469 362.488281 137.042969 354.09375 117.765625 316.414062 C 72.046875 323.195312 29.566406 295.421875 39.023438 261.675781 C 46.136719 286.472656 81.191406 303.207031 117.765625 297.785156 C 127.828125 317.449219 156.484375 331.625 190.273438 331.625 C 215.359375 331.625 237.972656 309.523438 251.894531 297.464844 C 262.480469 309.402344 280.722656 331.625 301.910156 331.625 C 330.28125 331.625 354.027344 317.414062 360.039062 298.359375 C 401.386719 311.660156 453.679688 294.800781 461.273438 257.695312 C 471.050781 305.5 409.464844 332.890625 360.039062 316.992188" fill="#b6d5f0"/></g><g id="change3_2"><path d="M 423.949219 297.574219 C 395.003906 322.199219 355.6875 312.292969 341.777344 277.097656 C 363.453125 297.980469 395.007812 305.84375 423.949219 297.574219" fill="#b6d5f0"/></g><g id="change3_3"><path d="M 146.90625 285.136719 C 126.160156 316.976562 85.648438 318.65625 62.304688 288.871094 C 89.023438 302.726562 121.511719 301.296875 146.90625 285.136719" fill="#b6d5f0"/></g><g id="change3_4"><path d="M 295.496094 281.636719 C 274.746094 313.480469 234.238281 315.160156 210.890625 285.375 C 237.609375 299.230469 270.097656 297.796875 295.496094 281.636719" fill="#b6d5f0"/></g><g id="change2_3"><path d="M 157.824219 251.824219 C 178.574219 219.980469 219.085938 218.300781 242.429688 248.085938 C 215.710938 234.230469 183.222656 235.664062 157.824219 251.824219" fill="#fff"/></g><g id="change2_4"><path d="M 354.863281 239.3125 C 375.613281 207.46875 416.125 205.789062 439.46875 235.574219 C 412.75 221.71875 380.261719 223.152344 354.863281 239.3125" fill="#fff"/></g><g id="change2_5"><path d="M 260.84375 207.550781 C 279.179688 174.257812 319.453125 169.585938 344.9375 197.5625 C 317.269531 185.722656 284.976562 189.554688 260.84375 207.550781" fill="#fff"/></g><g id="change2_6"><path d="M 110.394531 210.40625 C 130.832031 178.363281 171.324219 176.285156 194.960938 205.84375 C 168.105469 192.25 135.632812 194 110.394531 210.40625" fill="#fff"/></g></g></svg>