<?xml version="1.0" encoding="UTF-8"?><svg xmlns="http://www.w3.org/2000/svg" xmlns:xlink="http://www.w3.org/1999/xlink" height="185.0" preserveAspectRatio="xMidYMid meet" version="1.0" viewBox="31.3 173.4 432.1 185.0" width="432.1" zoomAndPan="magnify"><g><g id="change1_1"><path d="M 428.222656 275.707031 C 441.253906 250.5 412.464844 224.769531 371.484375 223.71875 C 371.042969 211.34375 364.105469 198.191406 351.867188 189.046875 C 331.039062 173.480469 303.519531 175.960938 293.484375 195.121094 C 264.558594 181.222656 230.304688 194.433594 215.339844 226.984375 C 215.242188 227.097656 215.144531 227.214844 215.046875 227.328125 C 191.550781 217.898438 163.105469 227.394531 154.601562 247.484375 C 109.992188 223.195312 36.664062 241.605469 36.664062 275.984375 C 36.664062 306.28125 95.296875 325.859375 142.191406 309.882812 C 160.328125 345.496094 201.183594 352.964844 214.390625 323.859375 C 232.433594 345.210938 259.660156 350.707031 282.410156 339.789062 C 300.800781 348.613281 323.007812 347.011719 340.886719 333.070312 C 384.132812 358.195312 463.355469 341.851562 463.355469 307.96875 C 463.355469 294.1875 449.222656 282.160156 428.222656 275.707031" fill="#e3f2ff"/></g><g id="change2_1"><path d="M 431.339844 263.332031 C 422.375 250.882812 400.347656 241.933594 374.296875 241.371094 C 373.847656 230.628906 366.734375 219.207031 354.199219 211.269531 C 332.886719 197.773438 304.695312 199.875 294.359375 216.539062 C 264.640625 204.449219 229.570312 215.996094 214.273438 244.210938 C 214.164062 244.304688 214.070312 244.40625 213.96875 244.507812 C 190.304688 236.472656 160.902344 244.234375 152.023438 262.007812 C 115.601562 245.230469 56.152344 251.464844 36.824219 273.351562 C 40.640625 240.308594 111.574219 224.058594 154.597656 247.484375 C 163.148438 227.292969 191.691406 217.941406 215.050781 227.332031 C 215.144531 227.214844 215.246094 227.09375 215.339844 226.984375 C 230.375 194.277344 264.707031 181.285156 293.484375 195.121094 C 303.449219 176.03125 330.96875 173.425781 351.867188 189.046875 C 364.105469 198.191406 371.042969 211.347656 371.484375 223.71875 C 404.765625 224.570312 431.339844 241.976562 431.339844 263.332031" fill="#fff"/></g><g id="change3_1"><path d="M 463.355469 307.96875 C 463.355469 341.53125 384.546875 358.429688 340.890625 333.070312 C 322.996094 347.011719 300.792969 348.617188 282.410156 339.785156 C 259.660156 350.714844 232.425781 345.203125 214.386719 323.859375 C 201.328125 352.699219 160.628906 345.890625 142.191406 309.878906 C 92.984375 326.652344 31.265625 304.203125 37.019531 271.933594 C 42.269531 287.941406 99.289062 296.355469 142.191406 288.308594 C 160.355469 307.890625 201.242188 311.945312 214.386719 295.984375 C 232.898438 308.011719 260.261719 310.5625 282.410156 304.730469 C 300.949219 309.609375 323.113281 308.648438 340.890625 301.039062 C 353.765625 305.152344 376.015625 317.425781 396.640625 317.425781 C 426.886719 317.425781 450.4375 306.019531 459.410156 295.636719 C 461.960938 299.492188 463.355469 303.640625 463.355469 307.96875" fill="#b6d5f0"/></g><g id="change3_2"><path d="M 431.332031 262.933594 C 431.332031 262.730469 431.332031 262.53125 431.324219 262.339844 C 431.347656 262.515625 431.34375 262.84375 431.332031 262.933594" fill="#b6d5f0"/></g><g id="change3_3"><path d="M 412.566406 329.054688 C 384.417969 332.566406 345.273438 313.445312 330.777344 289.179688 C 352.664062 308.234375 384.070312 323.550781 412.566406 329.054688" fill="#b6d5f0"/></g><g id="change3_4"><path d="M 169.324219 274.660156 C 157.839844 294.183594 128.777344 302.667969 108.652344 292.46875 C 129.460938 294.214844 152.761719 287.378906 169.324219 274.660156" fill="#b6d5f0"/></g><g id="change3_5"><path d="M 315.761719 289.449219 C 299.011719 315.996094 268.332031 315.898438 251.679688 289.449219 C 271.414062 302.355469 296.023438 302.355469 315.761719 289.449219" fill="#b6d5f0"/></g><g id="change3_6"><path d="M 347.804688 235.90625 C 331.054688 262.453125 300.371094 262.355469 283.722656 235.90625 C 303.457031 248.8125 328.066406 248.816406 347.804688 235.90625" fill="#b6d5f0"/></g></g></svg>